<svg width="16" height="20" viewBox="0 0 16 20" fill="none" xmlns="http://www.w3.org/2000/svg">
<path d="M16 7.89346C16 12.2518 8 20 8 20C8 20 0 12.2518 0 7.89346C0 5.79999 0.842855 3.79225 2.34315 2.31194C3.84344 0.83163 5.87827 0 8 0C10.1217 0 12.1566 0.83163 13.6569 2.31194C15.1571 3.79225 16 5.79999 16 7.89346ZM8 5.38337C7.49489 5.38338 7.00113 5.53127 6.58126 5.80833C6.16138 6.08538 5.83427 6.47914 5.64135 6.93975C5.44843 7.40035 5.39837 7.90708 5.49751 8.39578C5.59665 8.88447 5.84053 9.33315 6.19827 9.685C6.55602 10.0368 7.01153 10.276 7.50713 10.3723C8.00274 10.4685 8.51615 10.4175 8.98235 10.2257C9.44855 10.0339 9.84657 9.70984 10.126 9.29467C10.4055 8.8795 10.5538 8.39185 10.5521 7.89346C10.5521 7.56315 10.4861 7.23609 10.3577 6.93103C10.2294 6.62596 10.0412 6.34889 9.80415 6.1157C9.56705 5.88251 9.28564 5.69779 8.97605 5.57212C8.66645 5.44645 8.33477 5.38231 8 5.38337Z" fill="#EE7326"/>
</svg>
