<svg width="26" height="30" viewBox="0 0 26 30" fill="none" xmlns="http://www.w3.org/2000/svg">
<path fill-rule="evenodd" clip-rule="evenodd" d="M11.5563 24.5793C13.6552 24.725 15.6307 24.3849 17.4086 23.6318C17.8037 23.4617 18.2482 23.5832 18.4952 23.9233L22.4447 29.6361C22.741 30.0248 23.3337 30.122 23.7288 29.8304L25.6302 28.4699C26.0253 28.1784 26.1241 27.5953 25.8277 27.2066L21.9029 21.5181C21.6559 21.178 21.6806 20.7164 21.9523 20.4005C24.0265 18.0682 25.2118 14.9585 25.0143 11.6058C24.6439 5.36198 19.5076 0.332933 13.1613 0.0170993C5.6051 -0.37162 -0.617687 5.92077 0.0490401 13.4279C0.592299 19.3802 5.50632 24.142 11.5563 24.5793ZM5.65017 12.3824C5.65017 8.64943 8.68275 5.62829 12.4298 5.62829C16.161 5.62829 19.2095 8.64943 19.2095 12.3824C19.2095 16.1153 16.161 19.1364 12.4298 19.1364C8.68275 19.1364 5.65017 16.1153 5.65017 12.3824Z" fill="#131313"/>
</svg>
