<svg width="81" height="18" viewBox="0 0 81 18" fill="none" xmlns="http://www.w3.org/2000/svg">
<g opacity="0.7">
<path d="M73.8672 2.10065H80.3923C80.5852 2.10065 80.6817 2.03108 80.6817 1.84555V0.648899C80.6817 0.463372 80.5954 0.398438 80.3923 0.398438H63.686C63.4829 0.398438 63.3966 0.463372 63.3966 0.648899V1.85483C63.3966 2.04035 63.4931 2.10993 63.686 2.10993H70.2111V16.2332C70.2061 16.2731 70.2111 16.3135 70.2258 16.3513C70.2404 16.3892 70.2643 16.4235 70.2956 16.4516C70.327 16.4798 70.3649 16.5011 70.4066 16.5139C70.4482 16.5266 70.4925 16.5306 70.5361 16.5254H73.5422C73.5858 16.5306 73.6301 16.5266 73.6718 16.5139C73.7134 16.5011 73.7514 16.4798 73.7827 16.4516C73.814 16.4235 73.8379 16.3892 73.8525 16.3513C73.8672 16.3135 73.8722 16.2731 73.8672 16.2332V2.10065Z" fill="white"/>
<path d="M62.854 15.0832V16.2798C62.854 16.47 62.7677 16.5303 62.5645 16.5303H48.702C48.4938 16.5303 48.3465 16.4514 48.3465 16.2288V0.700185C48.3465 0.477552 48.4938 0.398703 48.702 0.398703H51.6776C51.7212 0.393513 51.7655 0.397457 51.8071 0.410235C51.8488 0.423013 51.8867 0.44429 51.9181 0.472452C51.9494 0.500614 51.9733 0.534922 51.9879 0.572773C52.0025 0.610624 52.0076 0.651024 52.0026 0.690908V14.842H62.5645C62.7575 14.842 62.854 14.9116 62.854 15.0925" fill="white"/>
<path d="M32.909 16.9941C27.7194 16.9941 24.2766 14.893 24.2766 10.0368V0.700185C24.2766 0.477552 24.4239 0.398703 24.6321 0.398703H27.6077C27.6513 0.393513 27.6956 0.397457 27.7372 0.410235C27.7789 0.423013 27.8168 0.44429 27.8482 0.472452C27.8795 0.500614 27.9034 0.534922 27.918 0.572773C27.9327 0.610624 27.9377 0.651024 27.9327 0.690908V10.0786C27.9327 13.381 29.1564 15.3847 32.9293 15.3847C36.7022 15.3847 37.931 13.381 37.931 10.0786V0.690908C37.9265 0.652723 37.9312 0.614102 37.9447 0.57773C37.9582 0.541359 37.9802 0.508111 38.0092 0.4803C38.0382 0.452489 38.0735 0.430783 38.1126 0.416692C38.1517 0.4026 38.1937 0.396462 38.2357 0.398703H41.2113C41.4195 0.398703 41.5668 0.477552 41.5668 0.700185V10.0507C41.5668 14.8234 38.0986 17.008 32.9344 17.008" fill="white"/>
<path d="M11.1713 15.306C13.3865 15.3632 15.5386 14.6276 17.1683 13.2559C17.1939 13.2252 17.2269 13.2002 17.2648 13.1831C17.3026 13.1659 17.3444 13.157 17.3866 13.157C17.4289 13.157 17.4706 13.1659 17.5085 13.1831C17.5464 13.2002 17.5794 13.2252 17.605 13.2559L18.3667 13.9609C18.4987 14.0815 18.5444 14.1975 18.3667 14.3644C16.4777 16.1038 13.629 16.9757 10.9225 16.9757C4.96108 16.9943 0 13.8542 0 8.49714C0 3.14005 4.96108 0 10.9174 0C13.6392 0 16.5031 0.867339 18.3768 2.62521C18.5342 2.77363 18.5495 2.8432 18.3768 3.0009L17.6812 3.67344C17.658 3.70269 17.6282 3.72711 17.5939 3.74508C17.5596 3.76305 17.5215 3.77415 17.4821 3.77766C17.4428 3.78117 17.403 3.777 17.3656 3.76543C17.3281 3.75386 17.2937 3.73515 17.2648 3.71054C16.4485 3.01793 15.4891 2.48108 14.4427 2.13145C13.3964 1.78181 12.2842 1.62642 11.1713 1.67438C6.53523 1.80889 3.81856 4.54541 3.80841 8.49714C3.79825 12.4489 6.53523 15.1808 11.1713 15.306Z" fill="white"/>
</g>
</svg>
