<svg width="46" height="65" viewBox="0 0 46 65" fill="none" xmlns="http://www.w3.org/2000/svg">
<path d="M23.7996 65V8.55532H44.0777V6.42501C44.0777 5.93078 43.8055 5.47063 43.3632 5.23204L36.4564 1.56791C34.5 0.545359 32.3395 0 30.145 0H17.5392C13.1672 0 9.6287 3.54483 9.6287 7.92475V8.43603H5.86908C2.61982 8.43603 0 11.0606 0 14.3157H9.25444V20.9622H13.2012V47.6167H9.37352V65H23.7996Z" fill="#131313"/>
<path d="M0 22.871H11.2278V45.6908H8.81213C7.0429 45.6908 5.6139 44.2593 5.6139 42.4869V28.887C2.51775 28.887 0 26.3647 0 23.2629V22.871Z" fill="#131313"/>
<path d="M25.7729 22.871V45.6908H28.2566C30.0259 45.6908 31.4549 44.2593 31.4549 42.4869V31.7501L46 25.8704V22.871H25.7729V22.871Z" fill="#131313"/>
<path d="M21.3158 17.5537H15.4808V18.5763H21.3158V17.5537Z" fill="#EE7326"/>
<path d="M21.3158 25.9048H15.4808V26.9273H21.3158V25.9048Z" fill="#EE7326"/>
<path d="M21.3158 34.2383H15.4808V35.2608H21.3158V34.2383Z" fill="#EE7326"/>
<path d="M21.3158 42.5723H15.4808V43.5948H21.3158V42.5723Z" fill="#EE7326"/>
<path d="M21.3158 50.9229H15.4808V51.9454H21.3158V50.9229Z" fill="#EE7326"/>
</svg>
