<svg width="273" height="90" viewBox="0 0 273 90" fill="none" xmlns="http://www.w3.org/2000/svg">
<g clip-path="url(#clip0_4_1644)">
<path d="M5.88341 21.6928C6.2083 21.1793 6.72251 20.8124 7.31616 20.6704C7.90981 20.5285 8.53581 20.6228 9.06039 20.9332C9.58083 21.2453 9.95525 21.7499 10.1014 22.336C10.2476 22.9222 10.1535 23.542 9.83993 24.0593C6.38264 29.7268 4.57049 36.2333 4.60379 42.8598C4.56453 50.9093 7.24751 58.7387 12.2227 65.0932C12.5871 65.5783 12.7436 66.1868 12.6582 66.7861C12.5728 67.3853 12.2524 67.9268 11.7667 68.2924C11.5299 68.4784 11.2583 68.6159 10.9676 68.6969C10.6768 68.7779 10.3728 68.8007 10.0731 68.764C9.77347 68.7273 9.48412 68.6318 9.22189 68.4832C8.95967 68.3345 8.72979 68.1356 8.5456 67.8979C2.985 60.7215 -0.0205692 51.9152 0.000105957 42.8598C0.0085582 39.1454 0.502973 35.4478 1.47093 31.86C2.47537 28.271 3.95939 24.8319 5.88341 21.6344V21.6928Z" fill="#1D3460"/>
<path d="M28.5635 82.7976C27.7783 82.5208 27.1324 81.9513 26.7627 81.2097C26.3929 80.4681 26.3284 79.6127 26.5827 78.8246C26.837 78.0366 27.3901 77.3778 28.125 76.9878C28.8599 76.5978 29.7188 76.5072 30.5197 76.7353C39.3736 79.5206 48.9718 78.7706 57.2782 74.6443C65.5846 70.5181 71.9457 63.3402 75.0122 54.6333C75.2985 53.8398 75.8887 53.1905 76.6543 52.8267C77.42 52.4629 78.2993 52.414 79.1011 52.6905C79.5016 52.8249 79.871 53.0374 80.1878 53.3154C80.5045 53.5934 80.7622 53.9314 80.9458 54.3097C81.1293 54.6879 81.2351 55.0986 81.2567 55.5179C81.2784 55.9372 81.2156 56.3566 81.072 56.7515C77.4282 67.0075 69.9153 75.4567 60.1188 80.3161C50.3222 85.1756 39.008 86.0653 28.5635 82.7976Z" fill="#1D3460"/>
<path d="M29.1374 10.401C28.6275 10.5929 28.0846 10.6831 27.5395 10.6665C26.9945 10.6499 26.4581 10.5269 25.961 10.3044C25.4638 10.082 25.0157 9.76442 24.6421 9.36994C24.2685 8.97546 23.9768 8.51176 23.7836 8.00531C23.3935 6.9825 23.4285 5.84768 23.8809 4.85049C24.3333 3.85329 25.166 3.07542 26.1958 2.68799C28.5805 1.80262 31.0423 1.13757 33.5499 0.701304C38.6488 -0.24447 43.88 -0.24447 48.9789 0.701304C51.518 1.16721 54.0127 1.84649 56.436 2.73182C56.943 2.92365 57.407 3.2128 57.8015 3.58274C58.196 3.95268 58.5133 4.39617 58.7353 4.88789C58.9572 5.37962 59.0795 5.90994 59.095 6.44859C59.1106 6.98724 59.0192 7.52366 58.8261 8.02723C58.6329 8.53079 58.3418 8.99165 57.9693 9.38347C57.5968 9.77529 57.1503 10.0904 56.6552 10.3108C56.1601 10.5313 55.6261 10.6527 55.0838 10.6682C54.5415 10.6836 54.0013 10.5929 53.4943 10.401C51.5718 9.68057 49.588 9.13301 47.5669 8.76493C45.4926 8.40817 43.3916 8.22735 41.2865 8.22443C39.2107 8.22921 37.1391 8.41003 35.0943 8.76493C33.06 9.12449 31.0653 9.67727 29.1374 10.4156V10.401Z" fill="#1D3460"/>
<path fill-rule="evenodd" clip-rule="evenodd" d="M72.4972 13.8921C72.5266 13.2104 72.4159 12.5299 72.1718 11.8921C71.9278 11.2543 71.5555 10.6726 71.0777 10.1823C70.5999 9.69205 70.0266 9.30356 69.3927 9.04053C68.7588 8.7775 68.0776 8.64544 67.3907 8.65239C66.7037 8.65934 66.0254 8.80516 65.397 9.08097C64.7686 9.35677 64.2034 9.75678 63.7358 10.2566C63.2681 10.7564 62.9079 11.3456 62.6769 11.9882C62.446 12.6308 62.3493 13.3134 62.3927 13.9944C62.3633 14.6761 62.474 15.3565 62.718 15.9944C62.9621 16.6322 63.3344 17.2139 63.8122 17.7042C64.29 18.1944 64.8633 18.5829 65.4972 18.846C66.1311 19.109 66.8123 19.2411 67.4992 19.2341C68.1862 19.2271 68.8645 19.0813 69.4929 18.8055C70.1212 18.5297 70.6865 18.1297 71.1541 17.6299C71.6218 17.1301 71.982 16.5409 72.2129 15.8983C72.4438 15.2557 72.5406 14.5731 72.4972 13.8921Z" fill="#1D3460"/>
<path fill-rule="evenodd" clip-rule="evenodd" d="M84.8965 42.8595C84.9023 41.9527 84.6365 41.0647 84.1329 40.3084C83.6293 39.552 82.9106 38.9614 82.0682 38.6117C81.2258 38.262 80.2977 38.169 79.4019 38.3445C78.5062 38.52 77.6832 38.9561 77.0376 39.5973C76.392 40.2385 75.9529 41.0559 75.7762 41.9455C75.5996 42.8352 75.6932 43.7569 76.0453 44.5936C76.3974 45.4303 76.992 46.1441 77.7535 46.6442C78.5151 47.1444 79.4092 47.4084 80.3222 47.4026C81.5342 47.3988 82.6954 46.9189 83.5524 46.0677C84.4094 45.2166 84.8926 44.0632 84.8965 42.8595Z" fill="#1D3460"/>
<path fill-rule="evenodd" clip-rule="evenodd" d="M20.2238 13.5854C20.2179 12.6846 19.9435 11.8057 19.4351 11.0598C18.9267 10.3138 18.2071 9.73419 17.3672 9.39414C16.5273 9.05409 15.6048 8.96885 14.7162 9.14918C13.8276 9.32951 13.0127 9.76733 12.3744 10.4073C11.7362 11.0474 11.3032 11.8609 11.1302 12.7451C10.9572 13.6294 11.0518 14.5447 11.4023 15.3756C11.7527 16.2064 12.3432 16.9155 13.0991 17.4133C13.855 17.911 14.7425 18.1752 15.6495 18.1723C16.2534 18.1704 16.8509 18.0501 17.4079 17.8184C17.9649 17.5867 18.4704 17.248 18.8953 16.8219C19.3203 16.3958 19.6564 15.8905 19.8843 15.3351C20.1123 14.7797 20.2276 14.1851 20.2238 13.5854Z" fill="#1D3460"/>
<path fill-rule="evenodd" clip-rule="evenodd" d="M22.2244 74.2816C22.2067 73.5596 21.9739 72.859 21.5554 72.2684C21.1369 71.6778 20.5515 71.2237 19.8732 70.9635C19.1948 70.7033 18.454 70.6487 17.7445 70.8066C17.0349 70.9646 16.3884 71.3279 15.8867 71.8506C15.385 72.3734 15.0506 73.0322 14.9259 73.7437C14.8011 74.4552 14.8915 75.1875 15.1858 75.8479C15.48 76.5084 15.9648 77.0674 16.5788 77.4542C17.1929 77.841 17.9086 78.0384 18.6356 78.0213C19.6096 77.9945 20.5335 77.5863 21.2057 76.8858C21.878 76.1853 22.2442 75.2492 22.2244 74.2816Z" fill="#1D3460"/>
<path d="M19.0033 54.6048C18.7252 54.0666 18.6696 53.4418 18.8481 52.8635C19.0266 52.2851 19.4253 51.7988 19.9594 51.5079C20.2259 51.3676 20.5176 51.2809 20.8179 51.2527C21.1181 51.2245 21.4211 51.2554 21.7093 51.3436C21.9975 51.4318 22.2654 51.5755 22.4977 51.7666C22.7299 51.9578 22.922 52.1925 23.0628 52.4574C25.0089 56.0732 27.9937 59.0326 31.6377 60.9592C34.0729 62.2473 36.7438 63.0363 39.4919 63.2792C42.2401 63.5222 45.0093 63.2141 47.6352 62.3734C50.2612 61.5327 52.6902 60.1764 54.7781 58.3851C56.866 56.5939 58.5701 54.4042 59.7893 51.9461C60.6567 50.2259 61.2709 48.3909 61.6132 46.4973C61.8206 45.2762 61.9239 44.0399 61.922 42.8015H66.5257C66.5457 44.3082 66.4325 45.8137 66.1874 47.3008C65.7568 49.6134 65.0044 51.8553 63.9518 53.962C62.0772 57.7517 59.2606 61.0042 55.7682 63.412C52.2759 65.8198 48.223 67.3035 43.9927 67.7227C38.9644 68.295 33.88 67.3319 29.4168 64.9618C24.9717 62.6138 21.3274 59.0096 18.9445 54.6048H19.0033Z" fill="#EC8033"/>
<path d="M23.1069 33.1744C22.82 33.703 22.3346 34.0978 21.7562 34.2728C21.1778 34.4479 20.5532 34.3891 20.0182 34.1093C19.4915 33.8113 19.103 33.3207 18.9353 32.7421C18.7677 32.1636 18.8344 31.5429 19.121 31.0124C21.3251 26.9516 24.6058 23.5669 28.6078 21.2251C32.6132 18.8808 37.1973 17.692 41.8453 17.7922C45.1577 17.8628 48.4247 18.5723 51.4645 19.8811C54.4963 21.1935 57.2359 23.0902 59.5246 25.4614C59.7342 25.6791 59.8986 25.9357 60.0083 26.2165C60.118 26.4973 60.171 26.7969 60.1642 27.098C60.1574 27.3992 60.0909 27.696 59.9685 27.9716C59.8461 28.2473 59.6703 28.4962 59.451 28.7044C59.2407 28.9137 58.9908 29.0798 58.7157 29.1932C58.4406 29.3065 58.1457 29.3648 57.8479 29.3648C57.55 29.3648 57.2551 29.3065 56.98 29.1932C56.7049 29.0798 56.455 28.9137 56.2447 28.7044C54.3687 26.763 52.1235 25.2107 49.6392 24.1375C47.1548 23.0643 44.4806 22.4914 41.7717 22.4521C37.9577 22.3143 34.1828 23.2566 30.8876 25.1692C27.5961 27.0685 24.902 29.8404 23.1069 33.1744Z" fill="#EC8033"/>
<path d="M64.231 40.5808C64.8357 40.5808 65.4155 40.8193 65.8431 41.244C66.2706 41.6686 66.5108 42.2445 66.5108 42.845C66.5108 43.4455 66.2706 44.0215 65.8431 44.4461C65.4155 44.8707 64.8357 45.1093 64.231 45.1093H41.2861C40.6815 45.1093 40.1016 44.8707 39.6741 44.4461C39.2465 44.0215 39.0063 43.4455 39.0063 42.845C39.0063 42.2445 39.2465 41.6686 39.6741 41.244C40.1016 40.8193 40.6815 40.5808 41.2861 40.5808H64.231Z" fill="#EC8033"/>
<path fill-rule="evenodd" clip-rule="evenodd" d="M48.6846 42.86C48.6846 40.9228 47.9098 39.065 46.5306 37.6953C45.1514 36.3255 43.2809 35.556 41.3304 35.556C39.38 35.556 37.5095 36.3255 36.1303 37.6953C34.7511 39.065 33.9763 40.9228 33.9763 42.86C33.9763 44.7971 34.7511 46.6549 36.1303 48.0247C37.5095 49.3945 39.38 50.164 41.3304 50.164C43.2809 50.164 45.1514 49.3945 46.5306 48.0247C47.9098 46.6549 48.6846 44.7971 48.6846 42.86Z" fill="#EC8033"/>
<path fill-rule="evenodd" clip-rule="evenodd" d="M22.0627 42.8602C22.0656 42.136 21.8517 41.4274 21.4481 40.8242C21.0445 40.2211 20.4695 39.7508 19.7962 39.473C19.1228 39.1953 18.3815 39.1226 17.6665 39.2642C16.9514 39.4059 16.2949 39.7554 15.7804 40.2685C15.2658 40.7816 14.9165 41.435 14.7768 42.1458C14.637 42.8565 14.7132 43.5925 14.9956 44.2601C15.278 44.9277 15.7539 45.4969 16.3627 45.8953C16.9716 46.2937 17.686 46.5034 18.4151 46.4976C19.3838 46.4937 20.3116 46.1088 20.9952 45.427C21.6789 44.7453 22.0627 43.8223 22.0627 42.8602Z" fill="#EC8033"/>
<path fill-rule="evenodd" clip-rule="evenodd" d="M223.301 59.1478C221.936 59.1947 220.576 58.9623 219.306 58.465C218.035 57.9677 216.881 57.2162 215.916 56.2571C214.95 55.2981 214.193 54.152 213.693 52.8902C213.192 51.6283 212.958 50.2777 213.005 48.9222V36.7683H217.418V48.8784C217.418 50.4591 218.05 51.9751 219.175 53.0928C220.301 54.2105 221.827 54.8385 223.419 54.8385C225.01 54.8385 226.537 54.2105 227.662 53.0928C228.787 51.9751 229.42 50.4591 229.42 48.8784V36.7683H233.744V48.9514C233.793 50.3075 233.561 51.6591 233.061 52.9219C232.561 54.1847 231.804 55.3317 230.838 56.2912C229.872 57.2507 228.717 58.0021 227.446 58.4986C226.174 58.9952 224.813 59.2261 223.448 59.177L223.301 59.1478Z" fill="#1D3460"/>
<path fill-rule="evenodd" clip-rule="evenodd" d="M191.208 38.3894C192.86 37.0187 194.938 36.2552 197.091 36.2274C198.456 36.1805 199.816 36.4129 201.086 36.9102C202.357 37.4075 203.511 38.1591 204.476 39.1181C205.442 40.0772 206.198 41.2232 206.699 42.4851C207.2 43.7469 207.434 45.0975 207.387 46.453V58.6361H203.062V46.4968C203.062 44.9161 202.43 43.4002 201.305 42.2824C200.179 41.1647 198.653 40.5368 197.062 40.5368C195.47 40.5368 193.944 41.1647 192.818 42.2824C191.693 43.4002 191.061 44.9161 191.061 46.4968V58.6069H186.795V36.7679H191.208V38.3894Z" fill="#1D3460"/>
<path fill-rule="evenodd" clip-rule="evenodd" d="M133.595 50.9674V45.8838H124.314V41.5014H137.978V52.8811C137.581 53.3777 137.14 53.8598 136.699 54.3419C134.234 56.8018 131.089 58.4796 127.663 59.1628C124.237 59.846 120.684 59.5037 117.454 58.1794C114.224 56.8551 111.462 54.6083 109.519 51.7238C107.576 48.8393 106.539 45.4468 106.539 41.9762C106.539 38.5056 107.576 35.1131 109.519 32.2285C111.462 29.344 114.224 27.0972 117.454 25.7729C120.684 24.4486 124.237 24.1063 127.663 24.7895C131.089 25.4727 134.234 27.1505 136.699 29.6105C136.993 29.9172 137.272 30.2094 137.581 30.56L134.095 33.4816H134.022C133.831 33.2479 133.625 33.0434 133.419 32.8096C130.969 30.3861 127.654 29.0211 124.197 29.0115C122.046 29.0072 119.927 29.5304 118.029 30.5346C116.131 31.5389 114.512 32.9932 113.316 34.7683C112.12 36.5434 111.383 38.5845 111.172 40.7102C110.961 42.8359 111.282 44.9805 112.106 46.9535C112.93 48.9266 114.232 50.667 115.896 52.0202C117.56 53.3734 119.534 54.2975 121.644 54.7106C123.755 55.1236 125.935 55.0127 127.991 54.3877C130.048 53.7628 131.917 52.6431 133.433 51.1281L133.595 50.9528V50.9674Z" fill="#1D3460"/>
<path fill-rule="evenodd" clip-rule="evenodd" d="M143.288 46.4238C143.241 45.0683 143.475 43.7177 143.976 42.4558C144.476 41.194 145.233 40.0479 146.199 39.0889C147.164 38.1298 148.318 37.3783 149.589 36.881C150.859 36.3837 152.219 36.1513 153.584 36.1982C154.076 36.2051 154.567 36.2392 155.055 36.3004H155.158V40.5514H155.055C154.711 40.4826 154.361 40.4484 154.01 40.4491C153.516 40.4565 153.024 40.5103 152.54 40.6098C151.157 40.8603 149.906 41.5801 148.999 42.646C148.092 43.7119 147.586 45.0576 147.568 46.453V58.5631H143.156L143.288 46.4238Z" fill="#1D3460"/>
<path fill-rule="evenodd" clip-rule="evenodd" d="M169.277 36.3304C172.318 36.3458 175.229 37.5532 177.378 39.6899C179.526 41.8265 180.738 44.7195 180.75 47.7393V58.6077H176.337V47.7393C176.334 45.8723 175.589 44.0821 174.264 42.7579C173.44 41.9439 172.427 41.3439 171.314 41.0112C170.201 40.6784 169.023 40.623 167.883 40.85C166.744 41.0769 165.678 41.5792 164.78 42.3123C163.883 43.0455 163.181 43.987 162.737 45.0536C162.292 46.1203 162.12 47.2791 162.233 48.4279C162.347 49.5766 162.744 50.6797 163.39 51.6398C164.035 52.5999 164.908 53.3873 165.932 53.9325C166.957 54.4777 168.101 54.7639 169.263 54.7657C170.393 54.7886 171.512 54.5432 172.528 54.0499H172.631L174.455 57.9941C172.875 58.7958 171.125 59.2115 169.351 59.2066C166.304 59.2066 163.383 58.0046 161.228 55.865C159.074 53.7254 157.864 50.8235 157.864 47.7977C157.864 44.7719 159.074 41.87 161.228 39.7304C163.383 37.5908 166.304 36.3888 169.351 36.3888L169.277 36.3304Z" fill="#1D3460"/>
<path fill-rule="evenodd" clip-rule="evenodd" d="M239.362 51.9459V25.2278H243.775V51.6829C243.767 52.1166 243.857 52.5466 244.037 52.9415C244.218 53.3364 244.485 53.6865 244.819 53.9662C245.152 54.246 245.545 54.4484 245.967 54.5588C246.389 54.6692 246.831 54.6848 247.261 54.6045H247.363V58.7094H247.261C247.001 58.725 246.741 58.725 246.481 58.7094C244.64 58.7253 242.867 58.0221 241.544 56.7514C240.22 55.4807 239.453 53.7443 239.406 51.9167L239.362 51.9459Z" fill="#1D3460"/>
<path fill-rule="evenodd" clip-rule="evenodd" d="M261.513 36.3304C264.556 36.342 267.471 37.5477 269.623 39.6847C271.775 41.8218 272.989 44.717 273 47.7393V58.6076H268.588V47.7393C268.573 45.8688 267.818 44.0792 266.484 42.7579C265.554 41.8556 264.39 41.2255 263.122 40.9372C261.854 40.6488 260.531 40.7132 259.297 41.1233C258.064 41.5334 256.968 42.2733 256.13 43.2618C255.293 44.2502 254.746 45.4489 254.549 46.726C254.353 48.0031 254.515 49.3093 255.018 50.5009C255.52 51.6926 256.344 52.7235 257.398 53.4804C258.452 54.2374 259.696 54.691 260.993 54.7915C262.29 54.892 263.589 54.6354 264.749 54.0499H264.852L266.676 57.9941C265.09 58.7939 263.336 59.2093 261.557 59.2066C258.511 59.2066 255.589 58.0046 253.435 55.865C251.28 53.7254 250.07 50.8235 250.07 47.7977C250.07 44.7719 251.28 41.87 253.435 39.7304C255.589 37.5908 258.511 36.3888 261.557 36.3888L261.513 36.3304Z" fill="#1D3460"/>
<path d="M113.533 85.3105C112.2 84.6092 111.086 83.5583 110.312 82.272C109.551 80.9349 109.152 79.4253 109.152 77.8896C109.152 76.3539 109.551 74.8443 110.312 73.5072C111.067 72.2163 112.173 71.1631 113.504 70.4687C114.897 69.7161 116.462 69.3336 118.048 69.3585C119.276 69.3438 120.495 69.5671 121.637 70.0159C122.695 70.441 123.641 71.1005 124.402 71.9442L122.932 73.405C122.313 72.7871 121.57 72.3054 120.751 71.9908C119.933 71.6762 119.057 71.5359 118.181 71.579C117.004 71.5629 115.844 71.8498 114.813 72.4116C113.828 72.9435 113.013 73.7378 112.459 74.7051C111.9 75.7037 111.607 76.8274 111.607 77.97C111.607 79.1125 111.9 80.2362 112.459 81.2349C113.013 82.2021 113.828 82.9964 114.813 83.5283C115.844 84.0902 117.004 84.377 118.181 84.361C119.065 84.3765 119.943 84.2062 120.757 83.8613C121.57 83.5164 122.301 83.0047 122.902 82.3597L124.373 83.8205C123.609 84.672 122.658 85.3369 121.593 85.7633C120.446 86.2119 119.222 86.4351 117.99 86.4207C116.434 86.4281 114.901 86.0463 113.533 85.3105Z" fill="#1D3460"/>
<path d="M139.302 73.6393V86.1876H137.008V75.626H129.86V86.1876H127.565V73.6393H139.302Z" fill="#1D3460"/>
<path d="M155.349 80.6948H145.053C145.11 81.2122 145.269 81.7134 145.522 82.1696C145.774 82.6258 146.115 83.0281 146.524 83.3534C147.407 84.0527 148.513 84.4154 149.642 84.376C150.323 84.4113 151.003 84.2989 151.635 84.0467C152.268 83.7944 152.837 83.4083 153.304 82.9152L154.569 84.376C153.99 85.0299 153.258 85.5317 152.436 85.8368C151.502 86.2079 150.501 86.3868 149.495 86.3627C148.259 86.3849 147.036 86.1039 145.935 85.5446C144.965 85.0159 144.165 84.226 143.626 83.2658C143.046 82.252 142.751 81.1014 142.773 79.9352C142.761 78.7831 143.044 77.6468 143.597 76.6338C144.123 75.6795 144.908 74.8902 145.862 74.3549C146.856 73.7938 147.983 73.5063 149.127 73.5223C150.267 73.5025 151.39 73.7903 152.378 74.3549C153.32 74.8911 154.09 75.6811 154.599 76.6338C155.14 77.6761 155.413 78.8355 155.393 80.0082C155.393 80.1738 155.378 80.4026 155.349 80.6948ZM146.377 76.4292C145.629 77.1095 145.162 78.0414 145.068 79.0441H153.201C153.103 78.0466 152.637 77.1205 151.892 76.4439C151.136 75.7656 150.145 75.4044 149.127 75.4359C148.117 75.4087 147.133 75.7637 146.377 76.4292Z" fill="#1D3460"/>
<path d="M172.69 84.2301V89.2406H170.513V86.1876H159.158V73.6393H161.453V84.2301H168.38V73.6393H170.69V84.2301H172.69Z" fill="#1D3460"/>
<path d="M194.355 84.1572V90.0004H192.119V86.1877H177.705V69.593H180.073V84.201H189.398V69.593H191.766V84.201L194.355 84.1572Z" fill="#1D3460"/>
<path d="M208.46 80.6948H198.165C198.222 81.2122 198.381 81.7134 198.633 82.1696C198.886 82.6258 199.226 83.0281 199.635 83.3534C200.519 84.0527 201.625 84.4154 202.754 84.376C203.434 84.4113 204.115 84.2989 204.747 84.0466C205.379 83.7944 205.949 83.4083 206.416 82.9152L207.681 84.376C207.102 85.0299 206.369 85.5317 205.548 85.8368C204.636 86.1982 203.662 86.377 202.68 86.3627C201.444 86.3849 200.221 86.1039 199.121 85.5446C198.119 85.0325 197.291 84.2402 196.738 83.2658C196.157 82.252 195.862 81.1014 195.885 79.9352C195.866 78.7823 196.15 77.6444 196.709 76.6338C197.235 75.6795 198.02 74.8902 198.974 74.3549C199.968 73.7938 201.095 73.5063 202.239 73.5223C203.378 73.5025 204.502 73.7903 205.489 74.3549C206.431 74.8911 207.201 75.6811 207.71 76.6338C208.252 77.6761 208.525 78.8355 208.505 80.0082C208.505 80.1738 208.49 80.4026 208.46 80.6948ZM199.488 76.4292C198.741 77.1095 198.274 78.0414 198.179 79.0441H206.313C206.215 78.0466 205.748 77.1205 205.004 76.4439C204.248 75.7656 203.257 75.4044 202.239 75.4359C201.228 75.4087 200.245 75.7637 199.488 76.4292Z" fill="#1D3460"/>
<path d="M226.875 73.6393V86.1876H224.801V77.0283L220.065 84.7998H219.05L214.373 76.9991V86.1876H212.27V73.6393H214.638L219.609 82.1411L224.727 73.6393H226.875Z" fill="#1D3460"/>
<path d="M242.951 80.6948H232.655C232.713 81.2122 232.872 81.7134 233.124 82.1696C233.377 82.6258 233.717 83.0281 234.126 83.3534C235.01 84.0527 236.116 84.4154 237.244 84.376C237.925 84.4113 238.605 84.2989 239.238 84.0467C239.87 83.7944 240.44 83.4083 240.907 82.9152L242.172 84.376C241.59 85.0268 240.858 85.528 240.039 85.8368C239.104 86.2079 238.104 86.3868 237.097 86.3627C235.861 86.3849 234.639 86.1039 233.538 85.5446C232.562 85.0181 231.757 84.228 231.214 83.2658C230.668 82.2446 230.383 81.106 230.383 79.9498C230.383 78.7935 230.668 77.6549 231.214 76.6338C231.741 75.6795 232.525 74.8902 233.479 74.3549C234.474 73.7938 235.601 73.5063 236.744 73.5223C237.884 73.5025 239.007 73.7903 239.995 74.3549C240.937 74.8911 241.707 75.6811 242.216 76.6338C242.757 77.6761 243.03 78.8355 243.01 80.0082C243 80.1738 242.981 80.4026 242.951 80.6948ZM233.965 76.4292C233.221 77.111 232.76 78.0431 232.67 79.0441H240.804C240.706 78.0466 240.239 77.1205 239.495 76.4439C238.739 75.7656 237.748 75.4044 236.73 75.4359C235.715 75.4079 234.727 75.7628 233.965 76.4292Z" fill="#1D3460"/>
<path d="M246.761 73.6393H249.055V78.9712H256.277V73.6393H258.572V86.1876H256.277V80.9433H249.055V86.1876H246.761V73.6393Z" fill="#1D3460"/>
<path d="M272.677 75.626H268.043V86.1876H265.749V75.626H261.101V73.6393H272.677V75.626Z" fill="#1D3460"/>
</g>
<defs>
<clipPath id="clip0_4_1644">
<rect width="273" height="90" fill="white"/>
</clipPath>
</defs>
</svg>
